<svg width="116" height="25" viewBox="0 0 116 25" fill="none" xmlns="http://www.w3.org/2000/svg">
<g clip-path="url(#clip0_1_308)">
<path d="M0 12.3126V24.6157H2.51007H5.02014V19.6157V14.5862L6.94384 14.6453L8.86754 14.7043L11.82 19.6453L14.7518 24.5862L17.6425 24.6157C19.2062 24.6157 20.5023 24.5764 20.5023 24.5173C20.5023 24.4582 19.165 22.1748 17.5499 19.4484C15.9143 16.722 14.5563 14.4484 14.5152 14.3795C14.4741 14.3008 14.9678 14.0055 15.6365 13.6807C17.1693 12.9523 18.7124 11.5842 19.3707 10.3441C20.2863 8.58226 20.3377 5.48187 19.453 3.83817C18.5375 2.13541 16.3978 0.698399 14.042 0.216114C13.3733 0.0783195 10.4209 -0.0102558 6.47063 -0.0102558H0V12.3126ZM13.3219 4.61573C14.4741 5.1177 15.0604 6.01337 15.0604 7.31258C15.0604 8.51337 14.5358 9.43856 13.5585 9.95037C12.9721 10.2456 12.2417 10.3244 8.96013 10.3736L5.03043 10.4523V7.32242V4.1925H8.7441C11.9434 4.21218 12.5709 4.27124 13.3219 4.61573Z" fill="black"/>
<path d="M79.8799 12.5197V24.626H82.2871H84.6943V12.5197V0.413372H82.2871H79.8799V12.5197Z" fill="black"/>
<path d="M106.472 11.7514C106.534 21.0821 106.534 21.1215 107.017 22.0565C107.563 23.1195 108.859 24.3203 109.908 24.7337C110.361 24.9109 111.41 25.0093 112.912 25.0093H115.216V23.0112V21.0132H113.879C112.861 21.0132 112.439 20.9148 111.996 20.59L111.451 20.1864V15.4817V10.8065H113.334H115.216V8.90692V7.00731H113.334H111.451V4.70416V2.40101H108.921H106.411L106.472 11.7514Z" fill="black"/>
<path d="M26.9318 6.98783C25.2344 7.52917 24.0823 8.21814 22.8581 9.44846C21.6031 10.7477 21.0167 11.7516 20.5949 13.4544C19.4736 18.0213 21.531 22.3914 25.7179 24.291C27.0141 24.8914 27.1787 24.9209 29.7916 24.9209C32.1268 24.9209 32.6823 24.8618 33.7213 24.4485C35.1821 23.8874 37.1367 22.2437 37.9082 20.8855L38.4534 19.9111L36.7766 18.976C35.8611 18.4544 35.0278 18.041 34.9352 18.041C34.8529 18.041 34.4929 18.4445 34.1225 18.917C33.2893 20.0784 32.1577 20.7772 30.7792 21.0429C29.555 21.2693 28.6601 21.1414 27.6005 20.6197C26.3454 20.0193 25.0904 18.4445 25.0904 17.4406C25.0904 17.037 25.1727 17.037 31.9931 17.037H38.8958V15.3638C38.8958 11.5252 37.0441 8.69058 33.567 7.22405C32.0754 6.55476 28.6189 6.45633 26.9318 6.98783ZM32.5795 10.8953C33.1247 11.2595 33.6493 11.8303 33.9785 12.4996L34.5237 13.5233L29.8842 13.5823C27.333 13.6118 25.2036 13.5823 25.1418 13.5233C24.8538 13.2477 26.3557 11.4563 27.405 10.8559C28.4749 10.226 28.6601 10.1965 30.1517 10.2555C31.4685 10.3146 31.8491 10.3933 32.5795 10.8953Z" fill="black"/>
<path d="M64.8503 6.91907C62.1551 7.64741 59.6656 9.54701 58.6472 11.6828C57.9168 13.2478 57.5979 15.6494 57.9168 17.4604C58.7295 22.1947 62.3814 25.0293 67.741 25.0293C70.8786 25.0293 72.9669 24.301 74.9935 22.5687C76.1662 21.545 76.9583 20.2655 77.4727 18.5431C77.915 17.0765 77.8122 13.8088 77.2875 12.4112C76.4234 10.1474 74.1499 8.05095 71.5781 7.17497C69.9836 6.61395 66.4654 6.486 64.8503 6.91907ZM69.9425 11.3876C72.8743 12.6277 73.8413 16.3679 71.8662 18.8482C70.4671 20.61 67.5147 21.2695 65.5293 20.2754C64.4491 19.7143 63.2661 18.4742 62.9369 17.5096C62.5151 16.3088 62.762 14.173 63.4204 13.238C64.9018 11.0923 67.4736 10.3738 69.9425 11.3876Z" fill="black"/>
<path d="M38.7518 7.29322C38.8135 7.43102 40.4903 11.3976 42.4757 16.0924L46.0968 24.6357L48.3703 24.5767L50.6437 24.5176L54.1722 16.2105C56.1165 11.6436 57.7625 7.7066 57.8345 7.44086L57.9682 6.97826L55.417 7.03732L52.8452 7.09637L50.6232 12.7361C49.4093 15.8365 48.3497 18.3168 48.288 18.2381C48.2057 18.1594 47.177 15.6003 45.9837 12.5393L43.8131 6.99794H41.2207C39.1324 7.01763 38.6592 7.07668 38.7518 7.29322Z" fill="black"/>
<path d="M87.1941 12.4799C87.1941 15.5606 87.2969 18.4543 87.4307 19.1236C87.8833 21.5645 89.2515 23.2476 91.5764 24.3007C92.9137 24.9011 93.068 24.9307 95.7838 24.9307C98.4379 24.9307 98.6848 24.8913 99.8576 24.3696C102.182 23.3362 103.664 21.5055 104.116 19.1334C104.25 18.474 104.353 15.5704 104.353 12.4897V7.02712H101.977H99.5695L99.5078 12.47C99.4461 17.6964 99.4255 17.972 98.9626 18.7692C98.2939 19.97 97.1623 20.4917 95.4752 20.3933C93.9733 20.3145 93.1092 19.8224 92.5228 18.6905C92.1731 18.0114 92.1319 17.3322 92.0702 12.4602L92.0085 7.01728H89.6013H87.2249V12.4799H87.1941Z" fill="black"/>
</g>
<defs>
<clipPath id="clip0_1_308">
<rect width="115.216" height="25" fill="white"/>
</clipPath>
</defs>
</svg>
